<svg id="Layer_1" data-name="Layer 1" xmlns="http://www.w3.org/2000/svg" viewBox="0 0 128 128"><title>PLACEHOLDER</title><path d="M64,4.75A41.607,41.607,0,0,0,22.44,46.31a50.741,50.741,0,0,0,3.122,15.813c7.011,20.617,23.7,45.258,37.123,60.532a1.75,1.75,0,0,0,2.629,0c13.427-15.274,30.112-39.915,37.123-60.532A50.735,50.735,0,0,0,105.56,46.31,41.607,41.607,0,0,0,64,4.75ZM99.123,61C92.494,80.494,76.952,103.743,64,118.832,51.048,103.743,35.506,80.494,28.877,61A47.35,47.35,0,0,1,25.94,46.31a38.06,38.06,0,1,1,76.119,0A47.345,47.345,0,0,1,99.123,61Z"/><path d="M91.424,68.825a1.749,1.749,0,0,0,2.3-.9c1.191-2.725,2.21-5.325,3.028-7.73a44.973,44.973,0,0,0,2.8-13.882,1.75,1.75,0,0,0-3.5,0,41.627,41.627,0,0,1-2.617,12.756c-.785,2.311-1.769,4.819-2.921,7.454A1.751,1.751,0,0,0,91.424,68.825Z"/><path d="M64,24.654A21.654,21.654,0,1,0,85.654,46.308,21.678,21.678,0,0,0,64,24.654Zm0,39.808A18.154,18.154,0,1,1,82.154,46.308,18.174,18.174,0,0,1,64,64.461Z"/></svg>