<svg xmlns="http://www.w3.org/2000/svg" viewBox="0 0 32 32"><defs><style>.cls-1{fill:#231f20;}</style></defs><g id="location"><path class="cls-1" d="M24.1,6,24,5.9A9.12,9.12,0,0,0,16,2,9.12,9.12,0,0,0,8,5.9L7.9,6C3.85,11.42,6.48,21.35,14,29.16a2.75,2.75,0,0,0,4,0h0C25.52,21.35,28.15,11.42,24.1,6ZM16.54,27.77a.76.76,0,0,1-1.08,0c-7.82-8.09-8.9-16.62-6-20.53l.11-.15A7.16,7.16,0,0,1,16,4a7.16,7.16,0,0,1,6.39,3.09l.11.15c2.94,3.91,1.86,12.44-6,20.53Z"/><path class="cls-1" d="M16,7a4,4,0,1,0,4,4A4,4,0,0,0,16,7Zm0,6a2,2,0,1,1,2-2A2,2,0,0,1,16,13Z"/></g></svg>